<svg width="217" height="54" viewBox="0 0 217 54" fill="none" xmlns="http://www.w3.org/2000/svg">
<path fill-rule="evenodd" clip-rule="evenodd" d="M10.5 21C16.299 21 21 16.299 21 10.5C21 4.70099 16.299 0 10.5 0C4.70105 0 0 4.70099 0 10.5C0 16.299 4.70105 21 10.5 21ZM49.5 21C55.299 21 60 16.299 60 10.5C60 4.70099 55.299 0 49.5 0C43.701 0 39 4.70099 39 10.5C39 16.299 43.701 21 49.5 21ZM99 10.5C99 16.299 94.299 21 88.5 21C82.701 21 78 16.299 78 10.5C78 4.70099 82.701 0 88.5 0C94.299 0 99 4.70099 99 10.5ZM128.5 21C134.299 21 139 16.299 139 10.5C139 4.70099 134.299 0 128.5 0C122.701 0 118 4.70099 118 10.5C118 16.299 122.701 21 128.5 21ZM178 10.5C178 16.299 173.299 21 167.5 21C161.701 21 157 16.299 157 10.5C157 4.70099 161.701 0 167.5 0C173.299 0 178 4.70099 178 10.5ZM206.5 21C212.299 21 217 16.299 217 10.5C217 4.70099 212.299 0 206.5 0C200.701 0 196 4.70099 196 10.5C196 16.299 200.701 21 206.5 21ZM21 43.5C21 49.299 16.299 54 10.5 54C4.70105 54 0 49.299 0 43.5C0 37.701 4.70105 33 10.5 33C16.299 33 21 37.701 21 43.5ZM49.5 54C55.299 54 60 49.299 60 43.5C60 37.701 55.299 33 49.5 33C43.701 33 39 37.701 39 43.5C39 49.299 43.701 54 49.5 54ZM99 43.5C99 49.299 94.299 54 88.5 54C82.701 54 78 49.299 78 43.5C78 37.701 82.701 33 88.5 33C94.299 33 99 37.701 99 43.5ZM128.5 54C134.299 54 139 49.299 139 43.5C139 37.701 134.299 33 128.5 33C122.701 33 118 37.701 118 43.5C118 49.299 122.701 54 128.5 54ZM178 43.5C178 49.299 173.299 54 167.5 54C161.701 54 157 49.299 157 43.5C157 37.701 161.701 33 167.5 33C173.299 33 178 37.701 178 43.5ZM206.5 54C212.299 54 217 49.299 217 43.5C217 37.701 212.299 33 206.5 33C200.701 33 196 37.701 196 43.5C196 49.299 200.701 54 206.5 54Z" fill="url(#paint0_linear_510_75)" fill-opacity="0.5"/>
<defs>
<linearGradient id="paint0_linear_510_75" x1="108.5" y1="0" x2="108.5" y2="54" gradientUnits="userSpaceOnUse">
<stop stop-color="white" stop-opacity="0.47"/>
<stop offset="1" stop-color="white" stop-opacity="0.24"/>
</linearGradient>
</defs>
</svg>
