<svg width="827" height="832" viewBox="0 0 827 832" fill="none" xmlns="http://www.w3.org/2000/svg">
<mask id="mask0_509_63" style="mask-type:alpha" maskUnits="userSpaceOnUse" x="0" y="0" width="827" height="832">
<path d="M621.25 466C598.73 560.07 514.11 630 413.14 630C312.17 630 227.54 560.07 205 466H0.120117C24.8201 672.17 200.31 832 413.12 832C625.93 832 801.44 672.17 826.12 466H621.25Z" fill="white"/>
<path d="M204.78 367C226.94 272.43 311.78 202 413.14 202C514.5 202 599.34 272.43 621.5 367H826.28C802 160.34 626.31 0 413.14 0C199.97 0 24.25 160.34 0 367H204.78Z" fill="white"/>
<path d="M415.82 551.34C490.423 551.34 550.9 490.863 550.9 416.26C550.9 341.657 490.423 281.18 415.82 281.18C341.217 281.18 280.74 341.657 280.74 416.26C280.74 490.863 341.217 551.34 415.82 551.34Z" fill="white"/>
</mask>
<g mask="url(#mask0_509_63)">
<rect width="826" height="832" fill="url(#paint0_linear_509_63)"/>
</g>
<defs>
<linearGradient id="paint0_linear_509_63" x1="413" y1="0" x2="413" y2="832" gradientUnits="userSpaceOnUse">
<stop offset="0.197917" stop-color="white" stop-opacity="0.31"/>
<stop offset="1" stop-color="white" stop-opacity="0"/>
</linearGradient>
</defs>
</svg>
